{
  "accessors": [
    {
      "bufferView": 2,
      "componentType": 5126,
      "count": 12942,
      "max": [
        49.16339874267578,
        38.35020065307617,
        186.30709838867188
      ],
      "min": [
        -51.075801849365234,
        -33.98529815673828,
        -0.25839999318122864
      ],
      "type": "VEC3"
    },
    {
      "bufferView": 2,
      "byteOffset": 155304,
      "componentType": 5126,
      "count": 12942,
      "max": [
        0.999993085861206,
        0.9997565150260925,
        0.9997652173042297
      ],
      "min": [
        -0.9999829530715942,
        -0.9997877478599548,
        -0.9999880790710449
      ],
      "type": "VEC3"
    },
    {
      "bufferView": 3,
      "componentType": 5126,
      "count": 12942,
      "max": [
        0.9999572038650513,
        0.9994844198226929,
        0.9998784065246582,
        1.0
      ],
      "min": [
        -0.9999944567680359,
        -0.9997634291648865,
        -0.9993935227394104,
        -1.0
      ],
      "type": "VEC4"
    },
    {
      "bufferView": 1,
      "componentType": 5126,
      "count": 12942,
      "max": [
        0.9994999766349792,
        0.9926999807357788
      ],
      "min": [
        0.0005000000237487257,
        0.0005000000237487257
      ],
      "type": "VEC2"
    },
    {
      "bufferView": 0,
      "componentType": 5125,
      "count": 70956,
      "type": "SCALAR"
    }
  ],
  "asset": {
    "extras": {
      "author": "andrea.notarstefano (https://sketchfab.com/andrea.notarstefano)",
      "license": "CC-BY-4.0 (http://creativecommons.org/licenses/by/4.0/)",
      "source": "https://sketchfab.com/3d-models/jupiter-bust-2c7b7179fbdc401aa1aa34ade7365f3c",
      "title": "Jupiter bust"
    },
    "generator": "Sketchfab-12.68.0",
    "version": "2.0"
  },
  "bufferViews": [
    {
      "buffer": 0,
      "byteLength": 283824,
      "name": "floatBufferViews",
      "target": 34963
    },
    {
      "buffer": 0,
      "byteLength": 103536,
      "byteOffset": 283824,
      "byteStride": 8,
      "name": "floatBufferViews",
      "target": 34962
    },
    {
      "buffer": 0,
      "byteLength": 310608,
      "byteOffset": 387360,
      "byteStride": 12,
      "name": "floatBufferViews",
      "target": 34962
    },
    {
      "buffer": 0,
      "byteLength": 207072,
      "byteOffset": 697968,
      "byteStride": 16,
      "name": "floatBufferViews",
      "target": 34962
    }
  ],
  "buffers": [
    {
      "byteLength": 905040,
      "uri": "scene.bin"
    }
  ],
  "images": [
    {
      "uri": "textures/Scene_-_Root_baseColor.jpeg"
    },
    {
      "uri": "textures/Scene_-_Root_metallicRoughness.png"
    },
    {
      "uri": "textures/Scene_-_Root_normal.png"
    }
  ],
  "materials": [
    {
      "doubleSided": true,
      "name": "Scene_-_Root",
      "normalTexture": {
        "index": 2
      },
      "occlusionTexture": {
        "index": 1
      },
      "pbrMetallicRoughness": {
        "baseColorTexture": {
          "index": 0
        },
        "metallicRoughnessTexture": {
          "index": 1
        }
      }
    }
  ],
  "meshes": [
    {
      "name": "Object_0",
      "primitives": [
        {
          "attributes": {
            "NORMAL": 1,
            "POSITION": 0,
            "TANGENT": 2,
            "TEXCOORD_0": 3
          },
          "indices": 4,
          "material": 0,
          "mode": 4
        }
      ]
    }
  ],
  "nodes": [
    {
      "children": [
        1
      ],
      "matrix": [
        0.004284646827727556,
        0.0,
        0.0,
        0.0,
        0.0,
        9.513827121060539e-19,
        -0.004284646827727556,
        0.0,
        0.0,
        0.004284646827727556,
        9.513827121060539e-19,
        0.0,
        0.0,
        0.0,
        0.0,
        1.0
      ],
      "name": "Sketchfab_model"
    },
    {
      "children": [
        2
      ],
      "name": "giove lp.obj.cleaner.materialmerger.gles"
    },
    {
      "mesh": 0,
      "name": "Object_2"
    }
  ],
  "samplers": [
    {
      "magFilter": 9729,
      "minFilter": 9987,
      "wrapS": 10497,
      "wrapT": 10497
    }
  ],
  "scene": 0,
  "scenes": [
    {
      "name": "Sketchfab_Scene",
      "nodes": [
        0
      ]
    }
  ],
  "textures": [
    {
      "sampler": 0,
      "source": 0
    },
    {
      "sampler": 0,
      "source": 1
    },
    {
      "sampler": 0,
      "source": 2
    }
  ]
}
