{
    "asset" : {
        "generator" : "Khronos glTF Blender I/O v3.2.43",
        "version" : "2.0"
    },
    "scene" : 0,
    "scenes" : [
        {
            "name" : "Scene",
            "nodes" : [
                0,
                1,
                2,
                3,
                4
            ]
        }
    ],
    "nodes" : [
        {
            "mesh" : 0,
            "name" : "Object_2_cell",
            "translation" : [
                0.6724954843521118,
                0.7872352600097656,
                0.23596403002738953
            ]
        },
        {
            "mesh" : 1,
            "name" : "Object_2_cell.001",
            "translation" : [
                0.594288170337677,
                3.7706985473632812,
                -0.36235761642456055
            ]
        },
        {
            "mesh" : 2,
            "name" : "Object_2_cell.002",
            "translation" : [
                -0.3625284433364868,
                5.088632583618164,
                0.04548443853855133
            ]
        },
        {
            "mesh" : 3,
            "name" : "Object_2_cell.003",
            "translation" : [
                -0.18248581886291504,
                3.229738235473633,
                0.4864625930786133
            ]
        },
        {
            "mesh" : 4,
            "name" : "Object_2_cell.004",
            "translation" : [
                -0.5380547046661377,
                1.245948314666748,
                -0.20819371938705444
            ]
        }
    ],
    "materials" : [
        {
            "doubleSided" : true,
            "name" : "Outer",
            "pbrMetallicRoughness" : {
                "baseColorFactor" : [
                    0.800000011920929,
                    0.800000011920929,
                    0.800000011920929,
                    1
                ],
                "metallicFactor" : 0,
                "roughnessFactor" : 0.5
            }
        },
        {
            "doubleSided" : true,
            "name" : "Inner",
            "pbrMetallicRoughness" : {
                "baseColorFactor" : [
                    0.021979104727506638,
                    0.021979104727506638,
                    0.021979104727506638,
                    1
                ],
                "roughnessFactor" : 0.5
            }
        }
    ],
    "meshes" : [
        {
            "name" : "Object_2_cell.105",
            "primitives" : [
                {
                    "attributes" : {
                        "POSITION" : 0,
                        "NORMAL" : 1,
                        "TEXCOORD_0" : 2
                    },
                    "indices" : 3,
                    "material" : 0
                },
                {
                    "attributes" : {
                        "POSITION" : 4,
                        "NORMAL" : 5,
                        "TEXCOORD_0" : 6
                    },
                    "indices" : 7,
                    "material" : 1
                }
            ]
        },
        {
            "name" : "Object_2_cell.106",
            "primitives" : [
                {
                    "attributes" : {
                        "POSITION" : 8,
                        "NORMAL" : 9,
                        "TEXCOORD_0" : 10
                    },
                    "indices" : 11,
                    "material" : 0
                },
                {
                    "attributes" : {
                        "POSITION" : 12,
                        "NORMAL" : 13,
                        "TEXCOORD_0" : 14
                    },
                    "indices" : 15,
                    "material" : 1
                }
            ]
        },
        {
            "name" : "Object_2_cell.099",
            "primitives" : [
                {
                    "attributes" : {
                        "POSITION" : 16,
                        "NORMAL" : 17,
                        "TEXCOORD_0" : 18
                    },
                    "indices" : 19,
                    "material" : 0
                },
                {
                    "attributes" : {
                        "POSITION" : 20,
                        "NORMAL" : 21,
                        "TEXCOORD_0" : 22
                    },
                    "indices" : 23,
                    "material" : 1
                }
            ]
        },
        {
            "name" : "Object_2_cell.102",
            "primitives" : [
                {
                    "attributes" : {
                        "POSITION" : 24,
                        "NORMAL" : 25,
                        "TEXCOORD_0" : 26
                    },
                    "indices" : 27,
                    "material" : 0
                },
                {
                    "attributes" : {
                        "POSITION" : 28,
                        "NORMAL" : 29,
                        "TEXCOORD_0" : 30
                    },
                    "indices" : 31,
                    "material" : 1
                }
            ]
        },
        {
            "name" : "Object_2_cell.103",
            "primitives" : [
                {
                    "attributes" : {
                        "POSITION" : 32,
                        "NORMAL" : 33,
                        "TEXCOORD_0" : 34
                    },
                    "indices" : 35,
                    "material" : 0
                },
                {
                    "attributes" : {
                        "POSITION" : 36,
                        "NORMAL" : 37,
                        "TEXCOORD_0" : 38
                    },
                    "indices" : 39,
                    "material" : 1
                }
            ]
        }
    ],
    "accessors" : [
        {
            "bufferView" : 0,
            "componentType" : 5126,
            "count" : 541,
            "max" : [
                0.5930465459823608,
                0.9327484965324402,
                0.8711047172546387
            ],
            "min" : [
                -0.9117679595947266,
                -0.7911185622215271,
                -1.030133605003357
            ],
            "type" : "VEC3"
        },
        {
            "bufferView" : 1,
            "componentType" : 5126,
            "count" : 541,
            "type" : "VEC3"
        },
        {
            "bufferView" : 2,
            "componentType" : 5126,
            "count" : 541,
            "type" : "VEC2"
        },
        {
            "bufferView" : 3,
            "componentType" : 5123,
            "count" : 1770,
            "type" : "SCALAR"
        },
        {
            "bufferView" : 4,
            "componentType" : 5126,
            "count" : 210,
            "max" : [
                0.5929977893829346,
                0.9362598061561584,
                0.8444687724113464
            ],
            "min" : [
                -0.9121386408805847,
                -0.7919712662696838,
                -1.0296331644058228
            ],
            "type" : "VEC3"
        },
        {
            "bufferView" : 5,
            "componentType" : 5126,
            "count" : 210,
            "type" : "VEC3"
        },
        {
            "bufferView" : 6,
            "componentType" : 5126,
            "count" : 210,
            "type" : "VEC2"
        },
        {
            "bufferView" : 7,
            "componentType" : 5123,
            "count" : 264,
            "type" : "SCALAR"
        },
        {
            "bufferView" : 8,
            "componentType" : 5126,
            "count" : 2640,
            "max" : [
                1.0030502080917358,
                2.025559902191162,
                0.954443097114563
            ],
            "min" : [
                -1.5584259033203125,
                -2.2246241569519043,
                -0.8824238181114197
            ],
            "type" : "VEC3"
        },
        {
            "bufferView" : 9,
            "componentType" : 5126,
            "count" : 2640,
            "type" : "VEC3"
        },
        {
            "bufferView" : 10,
            "componentType" : 5126,
            "count" : 2640,
            "type" : "VEC2"
        },
        {
            "bufferView" : 11,
            "componentType" : 5123,
            "count" : 10650,
            "type" : "SCALAR"
        },
        {
            "bufferView" : 12,
            "componentType" : 5126,
            "count" : 738,
            "max" : [
                0.6718363761901855,
                2.0252435207366943,
                0.9549546241760254
            ],
            "min" : [
                -1.5584259033203125,
                -2.2246241569519043,
                -0.7271497249603271
            ],
            "type" : "VEC3"
        },
        {
            "bufferView" : 13,
            "componentType" : 5126,
            "count" : 738,
            "type" : "VEC3"
        },
        {
            "bufferView" : 14,
            "componentType" : 5126,
            "count" : 738,
            "type" : "VEC2"
        },
        {
            "bufferView" : 15,
            "componentType" : 5123,
            "count" : 918,
            "type" : "SCALAR"
        },
        {
            "bufferView" : 16,
            "componentType" : 5126,
            "count" : 1596,
            "max" : [
                1.6054949760437012,
                0.9608336687088013,
                1.059822916984558
            ],
            "min" : [
                -1.0910632610321045,
                -1.325499415397644,
                -1.035212516784668
            ],
            "type" : "VEC3"
        },
        {
            "bufferView" : 17,
            "componentType" : 5126,
            "count" : 1596,
            "type" : "VEC3"
        },
        {
            "bufferView" : 18,
            "componentType" : 5126,
            "count" : 1596,
            "type" : "VEC2"
        },
        {
            "bufferView" : 19,
            "componentType" : 5123,
            "count" : 5985,
            "type" : "SCALAR"
        },
        {
            "bufferView" : 20,
            "componentType" : 5126,
            "count" : 437,
            "max" : [
                1.6055748462677002,
                0.7090218663215637,
                1.0560866594314575
            ],
            "min" : [
                -0.7549071311950684,
                -1.325082778930664,
                -1.0278505086898804
            ],
            "type" : "VEC3"
        },
        {
            "bufferView" : 21,
            "componentType" : 5126,
            "count" : 437,
            "type" : "VEC3"
        },
        {
            "bufferView" : 22,
            "componentType" : 5126,
            "count" : 437,
            "type" : "VEC2"
        },
        {
            "bufferView" : 23,
            "componentType" : 5123,
            "count" : 459,
            "type" : "SCALAR"
        },
        {
            "bufferView" : 24,
            "componentType" : 5126,
            "count" : 1893,
            "max" : [
                1.419857144355774,
                1.7173843383789062,
                0.6148956418037415
            ],
            "min" : [
                -1.175209641456604,
                -2.266961097717285,
                -0.8617181777954102
            ],
            "type" : "VEC3"
        },
        {
            "bufferView" : 25,
            "componentType" : 5126,
            "count" : 1893,
            "type" : "VEC3"
        },
        {
            "bufferView" : 26,
            "componentType" : 5126,
            "count" : 1893,
            "type" : "VEC2"
        },
        {
            "bufferView" : 27,
            "componentType" : 5123,
            "count" : 7020,
            "type" : "SCALAR"
        },
        {
            "bufferView" : 28,
            "componentType" : 5126,
            "count" : 703,
            "max" : [
                1.416911244392395,
                1.7253602743148804,
                0.6147453188896179
            ],
            "min" : [
                -1.1749050617218018,
                -2.266961097717285,
                -0.8617181777954102
            ],
            "type" : "VEC3"
        },
        {
            "bufferView" : 29,
            "componentType" : 5126,
            "count" : 703,
            "type" : "VEC3"
        },
        {
            "bufferView" : 30,
            "componentType" : 5126,
            "count" : 703,
            "type" : "VEC2"
        },
        {
            "bufferView" : 31,
            "componentType" : 5123,
            "count" : 825,
            "type" : "SCALAR"
        },
        {
            "bufferView" : 32,
            "componentType" : 5126,
            "count" : 1134,
            "max" : [
                1.22934091091156,
                2.139669179916382,
                1.289110779762268
            ],
            "min" : [
                -1.1224873065948486,
                -1.2517837285995483,
                -0.8813740015029907
            ],
            "type" : "VEC3"
        },
        {
            "bufferView" : 33,
            "componentType" : 5126,
            "count" : 1134,
            "type" : "VEC3"
        },
        {
            "bufferView" : 34,
            "componentType" : 5126,
            "count" : 1134,
            "type" : "VEC2"
        },
        {
            "bufferView" : 35,
            "componentType" : 5123,
            "count" : 3756,
            "type" : "SCALAR"
        },
        {
            "bufferView" : 36,
            "componentType" : 5126,
            "count" : 357,
            "max" : [
                1.2275134325027466,
                2.1369481086730957,
                1.2888222932815552
            ],
            "min" : [
                -0.8222082853317261,
                -1.2506637573242188,
                -0.8817682862281799
            ],
            "type" : "VEC3"
        },
        {
            "bufferView" : 37,
            "componentType" : 5126,
            "count" : 357,
            "type" : "VEC3"
        },
        {
            "bufferView" : 38,
            "componentType" : 5126,
            "count" : 357,
            "type" : "VEC2"
        },
        {
            "bufferView" : 39,
            "componentType" : 5123,
            "count" : 369,
            "type" : "SCALAR"
        }
    ],
    "bufferViews" : [
        {
            "buffer" : 0,
            "byteLength" : 6492,
            "byteOffset" : 0
        },
        {
            "buffer" : 0,
            "byteLength" : 6492,
            "byteOffset" : 6492
        },
        {
            "buffer" : 0,
            "byteLength" : 4328,
            "byteOffset" : 12984
        },
        {
            "buffer" : 0,
            "byteLength" : 3540,
            "byteOffset" : 17312
        },
        {
            "buffer" : 0,
            "byteLength" : 2520,
            "byteOffset" : 20852
        },
        {
            "buffer" : 0,
            "byteLength" : 2520,
            "byteOffset" : 23372
        },
        {
            "buffer" : 0,
            "byteLength" : 1680,
            "byteOffset" : 25892
        },
        {
            "buffer" : 0,
            "byteLength" : 528,
            "byteOffset" : 27572
        },
        {
            "buffer" : 0,
            "byteLength" : 31680,
            "byteOffset" : 28100
        },
        {
            "buffer" : 0,
            "byteLength" : 31680,
            "byteOffset" : 59780
        },
        {
            "buffer" : 0,
            "byteLength" : 21120,
            "byteOffset" : 91460
        },
        {
            "buffer" : 0,
            "byteLength" : 21300,
            "byteOffset" : 112580
        },
        {
            "buffer" : 0,
            "byteLength" : 8856,
            "byteOffset" : 133880
        },
        {
            "buffer" : 0,
            "byteLength" : 8856,
            "byteOffset" : 142736
        },
        {
            "buffer" : 0,
            "byteLength" : 5904,
            "byteOffset" : 151592
        },
        {
            "buffer" : 0,
            "byteLength" : 1836,
            "byteOffset" : 157496
        },
        {
            "buffer" : 0,
            "byteLength" : 19152,
            "byteOffset" : 159332
        },
        {
            "buffer" : 0,
            "byteLength" : 19152,
            "byteOffset" : 178484
        },
        {
            "buffer" : 0,
            "byteLength" : 12768,
            "byteOffset" : 197636
        },
        {
            "buffer" : 0,
            "byteLength" : 11970,
            "byteOffset" : 210404
        },
        {
            "buffer" : 0,
            "byteLength" : 5244,
            "byteOffset" : 222376
        },
        {
            "buffer" : 0,
            "byteLength" : 5244,
            "byteOffset" : 227620
        },
        {
            "buffer" : 0,
            "byteLength" : 3496,
            "byteOffset" : 232864
        },
        {
            "buffer" : 0,
            "byteLength" : 918,
            "byteOffset" : 236360
        },
        {
            "buffer" : 0,
            "byteLength" : 22716,
            "byteOffset" : 237280
        },
        {
            "buffer" : 0,
            "byteLength" : 22716,
            "byteOffset" : 259996
        },
        {
            "buffer" : 0,
            "byteLength" : 15144,
            "byteOffset" : 282712
        },
        {
            "buffer" : 0,
            "byteLength" : 14040,
            "byteOffset" : 297856
        },
        {
            "buffer" : 0,
            "byteLength" : 8436,
            "byteOffset" : 311896
        },
        {
            "buffer" : 0,
            "byteLength" : 8436,
            "byteOffset" : 320332
        },
        {
            "buffer" : 0,
            "byteLength" : 5624,
            "byteOffset" : 328768
        },
        {
            "buffer" : 0,
            "byteLength" : 1650,
            "byteOffset" : 334392
        },
        {
            "buffer" : 0,
            "byteLength" : 13608,
            "byteOffset" : 336044
        },
        {
            "buffer" : 0,
            "byteLength" : 13608,
            "byteOffset" : 349652
        },
        {
            "buffer" : 0,
            "byteLength" : 9072,
            "byteOffset" : 363260
        },
        {
            "buffer" : 0,
            "byteLength" : 7512,
            "byteOffset" : 372332
        },
        {
            "buffer" : 0,
            "byteLength" : 4284,
            "byteOffset" : 379844
        },
        {
            "buffer" : 0,
            "byteLength" : 4284,
            "byteOffset" : 384128
        },
        {
            "buffer" : 0,
            "byteLength" : 2856,
            "byteOffset" : 388412
        },
        {
            "buffer" : 0,
            "byteLength" : 738,
            "byteOffset" : 391268
        }
    ],
    "buffers" : [
        {
            "byteLength" : 392008,
            "uri" : "data:application/octet-stream;base64,"
        }
    ]
}
